<svg width="153" height="32" viewBox="0 0 153 32" fill="none" xmlns="http://www.w3.org/2000/svg">
<path d="M81.543 6C82.7881 6 83.907 6.05756 84.8984 6.17285C85.5726 6.23558 86.1832 6.32537 86.7295 6.44141C87.1643 6.53398 87.4578 6.92848 87.458 7.37305V11.1465C87.4578 11.7652 86.9006 12.2339 86.2891 12.1396C85.2367 11.9775 84.4269 11.8791 83.8604 11.8447C83.0996 11.7756 82.3157 11.7412 81.5088 11.7412C80.7479 11.7412 80.1945 11.8452 79.8486 12.0527C79.5259 12.2602 79.3643 12.6058 79.3643 13.0898C79.3643 13.3433 79.422 13.5394 79.5371 13.6777C79.6755 13.8161 79.9067 13.9201 80.2295 13.9893L83.999 14.8193C85.1749 15.073 86.0515 15.3497 86.6279 15.6494C87.2043 15.9261 87.6649 16.2725 88.0107 16.6875C88.4027 17.1486 88.6794 17.7364 88.8408 18.4512C89.0253 19.1659 89.1181 20.0305 89.1182 21.0449C89.1182 23.6272 88.4262 25.5067 87.043 26.6826C85.6596 27.8354 83.5265 28.412 80.6445 28.4121C79.1689 28.4121 77.7389 28.3313 76.3555 28.1699C75.384 28.0547 74.5885 27.9162 73.9697 27.7539C73.568 27.6485 73.3116 27.2727 73.3115 26.8574V22.8594C73.3115 22.1836 73.9705 21.6966 74.6309 21.8398C75.2277 21.9695 75.895 22.0849 76.6318 22.1865C77.9922 22.371 79.3414 22.4629 80.6787 22.4629C81.4855 22.4629 82.0502 22.3709 82.373 22.1865C82.6958 22.0021 82.8574 21.6677 82.8574 21.1836C82.8574 20.861 82.7997 20.6306 82.6846 20.4922C82.5923 20.3538 82.3732 20.2377 82.0273 20.1455L77.9805 19.2812C76.2052 18.8893 74.9599 18.2318 74.2451 17.3096C73.5536 16.3873 73.208 15.0844 73.208 13.4014C73.208 10.8652 73.8767 8.99781 75.2139 7.79883C76.5512 6.59988 78.6609 6.00005 81.543 6ZM122.222 6C126.026 6 128.712 6.84143 130.28 8.52441C131.871 10.1846 132.667 13.0676 132.667 17.1719C132.667 21.1375 131.837 24.0078 130.177 25.7832C128.54 27.5356 125.888 28.4121 122.222 28.4121C118.417 28.4121 115.731 27.5708 114.163 25.8877C112.595 24.2045 111.812 21.299 111.812 17.1719C111.812 13.2522 112.63 10.4155 114.267 8.66309C115.927 6.88768 118.579 6.00003 122.222 6ZM5.39844 6.57617C5.95063 6.57617 6.3983 7.02401 6.39844 7.57617V21.2441C6.39846 21.7964 6.84619 22.2441 7.39844 22.2441H13.042C13.5943 22.2441 14.042 22.6919 14.042 23.2441V27.2617C14.042 27.814 13.5943 28.2617 13.042 28.2617H1C0.447715 28.2617 0 27.814 0 27.2617V7.57617C0.00014093 7.02401 0.447802 6.57617 1 6.57617H5.39844ZM21.2393 6.57617C21.7915 6.57617 22.2391 7.02401 22.2393 7.57617V27.2617C22.2393 27.814 21.7915 28.2617 21.2393 28.2617H16.8408C16.2886 28.2617 15.8408 27.814 15.8408 27.2617V7.57617C15.841 7.02403 16.2886 6.5762 16.8408 6.57617H21.2393ZM30.3633 6.57617C30.704 6.5763 31.0213 6.75015 31.2051 7.03711L37.8047 17.3457C37.9125 17.5137 38.1729 17.437 38.1729 17.2373V7.57617C38.173 7.02412 38.6208 6.57636 39.1729 6.57617H43.1562C43.7084 6.57617 44.1561 7.02401 44.1562 7.57617V27.2617C44.1562 27.814 43.7085 28.2617 43.1562 28.2617H38.6387C38.3048 28.2617 37.9922 28.0958 37.8066 27.8184L31.2764 18.0537C31.1664 17.8894 30.9102 17.9673 30.9102 18.165V27.2617C30.9102 27.814 30.4624 28.2617 29.9102 28.2617H25.9268C25.3745 28.2617 24.9268 27.814 24.9268 27.2617V7.57617C24.9269 7.02401 25.3746 6.57617 25.9268 6.57617H30.3633ZM52.2461 6.57617C52.7981 6.57643 53.246 7.02417 53.2461 7.57617V14.0059C53.2461 14.4106 53.5737 14.7392 53.9785 14.7393C54.2323 14.7393 54.468 14.6074 54.6016 14.3916L59.1436 7.05078C59.3258 6.75618 59.6477 6.57617 59.9941 6.57617H65.1621C65.9636 6.57649 66.4392 7.47278 65.9902 8.13672L60.3281 16.5049C60.1023 16.8387 60.0987 17.276 60.3193 17.6133L66.2754 26.7148C66.7103 27.3799 66.2331 28.2616 65.4385 28.2617H59.874C59.5176 28.2616 59.1886 28.072 59.0098 27.7637L54.5967 20.1494C54.4672 19.926 54.228 19.7881 53.9697 19.7881C53.5698 19.7881 53.2461 20.1128 53.2461 20.5127V27.2617C53.2461 27.8138 52.7982 28.2615 52.2461 28.2617H47.8467C47.2946 28.2615 46.8467 27.8139 46.8467 27.2617V7.57617C46.8468 7.02415 47.2947 6.5764 47.8467 6.57617H52.2461ZM96.3506 6.3457C96.9028 6.3457 97.3505 6.79349 97.3506 7.3457V13.1279C97.3506 13.68 97.7985 14.1277 98.3506 14.1279H102.3C102.852 14.1279 103.3 13.6802 103.3 13.1279V7.3457C103.3 6.7935 103.748 6.34571 104.3 6.3457H108.732C109.285 6.3457 109.732 6.79349 109.732 7.3457V27.0312C109.732 27.5835 109.285 28.0312 108.732 28.0312H104.3C103.748 28.0312 103.3 27.5835 103.3 27.0312V20.9385C103.3 20.3862 102.852 19.9385 102.3 19.9385H98.3506C97.7985 19.9387 97.3506 20.3863 97.3506 20.9385V27.0312C97.3506 27.5835 96.9029 28.0312 96.3506 28.0312H91.9521C91.4 28.0311 90.9521 27.5834 90.9521 27.0312V7.3457C90.9522 6.79359 91.4001 6.34586 91.9521 6.3457H96.3506ZM142.854 6.3457C146.335 6.3457 148.791 6.94553 150.221 8.14453C151.673 9.32044 152.399 11.3262 152.399 14.1621C152.399 16.9519 151.639 19.0041 150.117 20.3184C148.595 21.6326 146.209 22.29 142.958 22.29H142.124C141.572 22.2903 141.124 22.738 141.124 23.29V27.0312C141.124 27.5835 140.676 28.0312 140.124 28.0312H135.726C135.173 28.0311 134.726 27.5834 134.726 27.0312V7.3457C134.726 6.79361 135.174 6.3459 135.726 6.3457H142.854ZM122.222 11.8105C120.608 11.8106 119.547 12.1794 119.04 12.917C118.556 13.6318 118.313 15.0506 118.313 17.1719C118.314 19.2238 118.556 20.6075 119.04 21.3223C119.547 22.0368 120.608 22.3935 122.222 22.3936C123.859 22.3936 124.92 22.0482 125.404 21.3564C125.911 20.6417 126.165 19.2466 126.165 17.1719C126.165 15.0506 125.912 13.6318 125.404 12.917C124.897 12.1791 123.836 11.8105 122.222 11.8105ZM142.124 12.1562C141.572 12.1565 141.124 12.6042 141.124 13.1562V15.7217C141.124 16.2738 141.572 16.7214 142.124 16.7217H143.165C144.18 16.7217 144.882 16.5369 145.274 16.168C145.666 15.7991 145.863 15.1656 145.863 14.2666C145.863 13.5057 145.666 12.9634 145.274 12.6406C144.882 12.3179 144.179 12.1562 143.165 12.1562H142.124Z" fill="#14151A"/>
</svg>
